<?xml version="1.0" encoding="utf-8"?>
<!-- Generator: Adobe Illustrator 22.1.0, SVG Export Plug-In . SVG Version: 6.00 Build 0)  -->
<svg version="1.1" id="Layer_1" xmlns="http://www.w3.org/2000/svg" xmlns:xlink="http://www.w3.org/1999/xlink" x="0px" y="0px"
	 viewBox="0 0 200.2 23.2" style="enable-background:new 0 0 200.2 23.2;" xml:space="preserve">
<style type="text/css">
	.st0{fill:#FEDA4A;}
</style>
<path class="st0" d="M17.9,0.4v6.7h-4.6c-2.7-0.1-3.1,0.7-1.2,2.2c3.4,3,5,5.8,5,8.6c-0.1,2.8-1.7,4.5-5,5h-12v-6.7h4.8
	c3,0.1,3.3-0.7,1.1-2.5c-3.6-3.3-5.2-6.4-4.6-9.2c0.5-2.8,2.3-4.2,5.1-4.2H17.9z M1,17.2v4.9h11.1c2.8-0.6,4.1-2.1,4-4.5
	c-0.1-2.4-1.9-5.2-5.5-8.2c-1.7-2.2-0.8-3.2,2.7-3.2h3.6V1.3H6.5c-2.2,0-3.5,1.2-4.1,3.5c-0.6,2.3,0.9,5.1,4.5,8.4
	c2.6,2.6,2,3.9-2,4H1z"/>
<path class="st0" d="M34.5,13.4L32.1,23h-7.4L17.9,0.4h7.4l3.1,9.8L31,0.4h6.8l3.1,9.8L43,0.4h7.4L44.7,23h-7.4L34.5,13.4z
	 M19.1,1.3l6.5,20.7h5.9l2.5-9.6h1.3l2.9,9.6h6l5.2-20.7h-5.5l-2.3,9.8h-1l-3.3-9.8h-5.3L29,11.1h-1.3l-3.1-9.8H19.1z"/>
<path class="st0" d="M49.2,23l7.4-22.6h11.2L75.5,23h-8.6l-1.4-4.1h-6.7L57.3,23H49.2z M50.5,22.1h6.2l1.5-4.1h8.1l1.5,4.1h6.5
	L67.3,1.3h-9.8L50.5,22.1z M62.3,5.1l3.2,9.3h-6.7L62.3,5.1z M60.3,13.4H64l-1.7-5L60.3,13.4z"/>
<path class="st0" d="M75.5,23V0.4h14.7c1.8,0.2,3.3,0.7,4.4,1.4c1.1,0.7,1.9,1.6,2.4,2.6c0.5,1,0.7,1.9,0.8,2.6
	c0.1,0.7,0.1,1.4,0.1,2.1c0,0.7-0.2,1.4-0.5,2.1c-0.3,0.7-1,1.5-2.1,2.5c-1.1,0.9-2.7,1.5-4.5,1.8h-7.1V23H75.5z M76.4,22.1h6.3
	v-7.5h8c1.8-0.4,3.1-0.9,4.1-1.7c0.9-0.8,1.6-1.7,1.9-2.7c0.3-1,0.4-2,0.2-3c-0.2-0.9-0.4-1.7-0.8-2.4c-0.3-0.7-1-1.4-1.9-2.1
	c-1-0.7-2.3-1.1-4-1.3H76.4V22.1z M83.2,5.7h6.3c0.3,0,0.6,0.2,1,0.5c0.4,0.3,0.6,1,0.7,2c0,1.1-0.3,1.7-0.6,2
	c-0.4,0.3-0.8,0.4-1.1,0.4h-6.3V5.7z M84.2,6.6v3.2h4.8c0.3,0,0.5-0.1,0.8-0.3c0.3-0.2,0.5-0.6,0.5-1.3c-0.1-0.6-0.2-1.1-0.6-1.3
	c-0.3-0.2-0.6-0.3-0.8-0.3H84.2z"/>
<path class="st0" d="M99,0.4h7.4V23H99V0.4z M99.9,1.3v20.7h5.5V1.3H99.9z"/>
<path class="st0" d="M122.1,23V0.4h15.4c2.5,0,4.4,0.4,5.6,1.3c1.3,0.8,2.1,2.2,2.3,4.2c0.1,1.5-0.2,2.7-1,3.5
	c-0.7,0.9-1.9,1.6-3.6,2.1v0.1c0.8,0.1,1.6,0.3,2.3,0.7c0.7,0.3,1.3,0.7,1.8,1.2c0.5,0.5,0.8,1,1.1,1.6c0.3,0.6,0.4,1.2,0.4,1.7
	c0,1.8-0.5,3.1-1.4,4.1c-0.9,0.9-2.1,1.5-3.5,1.8c-1.4,0.3-3.2,0.4-5.2,0.4H122.1z M123.1,22.1h13.3c2,0,3.7-0.1,5.1-0.3
	c1.4-0.3,2.4-0.8,3.1-1.6c0.7-0.8,1-1.9,1-3.3c0-0.6-0.1-1.1-0.4-1.5c-0.2-0.5-0.5-0.9-0.9-1.3c-0.4-0.4-0.9-0.7-1.5-1
	c-0.6-0.3-1.6-0.6-3-0.9v-1c1.8-0.5,3-1.1,3.8-1.9c0.7-0.8,1.1-1.9,0.9-3.3c-0.2-1.6-0.9-2.8-2-3.5c-1.1-0.7-2.8-1-5-1.1h-14.5V22.1
	z M129.4,5.5h5c1,0,1.7,0.2,2.4,0.5c0.6,0.4,0.9,0.9,0.9,1.6c0,0.6-0.3,1.1-0.9,1.5c-0.6,0.4-1.4,0.6-2.3,0.6h-5V5.5z M129.4,13.7
	h5.9c1.2,0,2.1,0.2,2.9,0.7c0.7,0.5,1.1,1.1,1,2c0,0.8-0.3,1.4-1.1,1.9c-0.7,0.5-1.7,0.7-2.8,0.7h-5.9V13.7z M130.3,6.4v2.3h4.1
	c0.8-0.1,1.4-0.2,1.7-0.3c0.3-0.2,0.5-0.4,0.6-0.8c0-0.4-0.2-0.7-0.5-0.9c-0.3-0.2-0.9-0.3-1.8-0.3H130.3z M130.3,14.7V18h5
	c1.1,0,1.8-0.2,2.2-0.4c0.4-0.3,0.6-0.7,0.7-1.2c0-0.6-0.2-1-0.6-1.3c-0.4-0.3-1.2-0.4-2.3-0.4H130.3z"/>
<path class="st0" d="M172.8,11.8c0,2.5-0.5,4.6-1.6,6.3c-1,1.7-2.5,3.1-4.5,3.9c-2,0.9-4.3,1.3-7,1.3c-2.7,0-5-0.4-7-1.3
	c-1.9-0.9-3.4-2.2-4.4-3.9c-1-1.7-1.5-3.8-1.5-6.3c0-1.9,0.3-3.6,0.9-5c0.6-1.4,1.4-2.6,2.5-3.6c1.1-1,2.5-1.7,4.1-2.2
	c1.6-0.5,3.4-0.8,5.5-0.8c2.7,0,5,0.4,7,1.3c2,0.9,3.5,2.2,4.5,3.9C172.3,7.3,172.8,9.4,172.8,11.8z M171.9,11.8
	c0-2.3-0.5-4.2-1.5-5.8c-1-1.6-2.3-2.8-4.2-3.6c-1.8-0.8-4-1.2-6.5-1.2c-1.9,0-3.6,0.2-5,0.7C153.3,2.3,152,3,151,3.9
	c-1,0.9-1.8,2-2.3,3.3c-0.5,1.3-0.8,2.8-0.9,4.6c0,2.3,0.5,4.2,1.4,5.8s2.3,2.8,4.1,3.6c1.8,0.8,3.9,1.2,6.5,1.2
	c2.5,0,4.7-0.4,6.5-1.2c1.8-0.8,3.2-2,4.1-3.6C171.3,16,171.8,14.1,171.9,11.8z M154.3,11.9c0-4,1.8-6,5.3-6c2.3,0,3.7,0.6,4.4,1.8
	c0.7,1.2,1.1,2.6,1.2,4.2c-0.1,1.1-0.2,2.1-0.4,2.9s-0.7,1.5-1.5,2.1c-0.8,0.6-2,0.9-3.7,0.9c-2.1,0-3.5-0.6-4.2-1.8
	C154.7,14.8,154.3,13.5,154.3,11.9z M155.3,11.9c0,1.3,0.3,2.5,0.9,3.5c0.6,1,1.7,1.5,3.5,1.5c1.3,0,2.3-0.3,3-0.8
	c0.7-0.5,1.1-1.1,1.3-1.8c0.2-0.7,0.3-1.5,0.3-2.4c-0.1-1.3-0.4-2.5-0.9-3.5c-0.6-1-1.8-1.5-3.6-1.5C156.8,7,155.3,8.6,155.3,11.9z"
	/>
<path class="st0" d="M200.1,0.4l-8.3,11.3l8.3,11.3h-8.9l-4.7-7l-4.6,7H173l8.3-11.3L173,0.4h8.9l4.6,7l4.7-7H200.1z M174.7,1.3
	l7.5,9.7v1.1l-7.4,9.9h6.6l4.5-7h1.3l4.5,7h6.6l-7.5-9.9v-1.1l7.5-9.8h-6.6l-4.7,7h-1l-4.6-7H174.7z"/>
</svg>
