<?xml version="1.0" encoding="utf-8"?>
<!-- Generator: Adobe Illustrator 22.1.0, SVG Export Plug-In . SVG Version: 6.00 Build 0)  -->
<svg version="1.1" id="Layer_1" xmlns="http://www.w3.org/2000/svg" xmlns:xlink="http://www.w3.org/1999/xlink" x="0px" y="0px"
	 viewBox="0 0 100 100" style="enable-background:new 0 0 100 100;" xml:space="preserve">
<style type="text/css">
	.st0{fill:#FEDA4A;}
</style>
<path class="st0" d="M97.3,34.3c-0.5-1-1.2-1.4-2.2-1.4H65.7L52.1,3.4c-0.5-1-1.2-1.4-2.2-1.4c-1,0-1.7,0.5-2.2,1.4L34.2,32.9H5
	c-1,0-1.9,0.5-2.2,1.4c-0.2,1-0.2,1.9,0.5,2.6l21.5,22.5L16,94.1c-0.2,1,0,1.9,1,2.4c1,0.5,1.9,0.7,2.6,0.2l30.4-17.2l30.4,17.2
	C80.8,97,81,97,81.5,97c0.5,0,1-0.2,1.4-0.5c0.7-0.5,1.2-1.7,1-2.4l-8.6-34.7l21.5-22.5C97.3,36.2,97.6,35.3,97.3,34.3z"/>
</svg>
