<?xml version="1.0" encoding="utf-8"?>
<!-- Generator: Adobe Illustrator 22.1.0, SVG Export Plug-In . SVG Version: 6.00 Build 0)  -->
<svg version="1.1" id="Layer_1" xmlns="http://www.w3.org/2000/svg" xmlns:xlink="http://www.w3.org/1999/xlink" x="0px" y="0px"
	 viewBox="0 0 100 100" style="enable-background:new 0 0 100 100;" xml:space="preserve">
<style type="text/css">
	.st0{fill:#FEDA4A;enable-background:new    ;}
</style>
<path class="st0" d="M70.8,57c-0.5,0.5-0.7,1.4-0.7,2.2l7.7,30.6L51.1,74.5c-0.5-0.2-0.7-0.2-1.2-0.2s-0.7,0-1.2,0.2L22.2,89.8
	l7.7-30.6c0.2-0.7,0-1.7-0.7-2.2L10.5,37.6h25.1c1,0,1.7-0.5,2.2-1.4L50,10.1l12.2,26.1c0.5,1,1.2,1.4,2.2,1.4h25.1L70.8,57z
	 M97.3,34.3c-0.5-1-1.2-1.4-2.2-1.4H65.7L52.1,3.4c-0.5-1-1.2-1.4-2.2-1.4s-1.7,0.5-2.2,1.4L34.2,32.9H5c-1,0-1.9,0.5-2.2,1.4
	c-0.2,1-0.2,1.9,0.5,2.6l21.5,22.5L16,94.1c-0.2,1,0,1.9,1,2.4s1.9,0.7,2.6,0.2L50,79.5l30.4,17.2C80.8,97,81,97,81.5,97
	s1-0.2,1.4-0.5c0.7-0.5,1.2-1.7,1-2.4l-8.6-34.7l21.5-22.5C97.3,36.2,97.6,35.3,97.3,34.3z"/>
</svg>
